# xmcd
#
# Track frame offsets:
#	150
#	20771
#	36776
#	48456
#	60897
#	76198
#	90459
#	106492
#	120829
#	134409
#	145511
#	163762
#	182093
#	197232
#	210605
#	228792
#	249595
#	266252
#
# Disc length: 3715 seconds
#
# Revision: 0
# Processed by: cddbd v1.5.2PL0 Copyright (c) Steve Scherf et al.
# Submitted via: audiograbber 1.83.01
#
DISCID=e70e8112
DTITLE=Various Artist - Country Music Messe 2011 CD2
DYEAR=2011
DGENRE=Country
TTITLE0=Jamestown Ferry - Bluebird Song
TTITLE1=Kim West - Von Twist bis Rock ´n´Roll
TTITLE2=Billy Yates - Too Country And Proud Of It
TTITLE3=Mark Merritt and Sievert Ahrend - Island Paradise
TTITLE4=Texas Heat - Piece Of Wood
TTITLE5=Savannah - One Kiss
TTITLE6=Jolina Carl and David Lee Howard - I Hope You Stay
TTITLE7=Hermann Lammers Meyer - Too Old For Nothing
TTITLE8=Tex Robinson - Where shall I Go
TTITLE9=Midnight Hustle - Big River
TTITLE10=Country Delight - Denmark
TTITLE11=Mountarillo - She Still Dances Alone
TTITLE12=Daniel T. Coates - Out In The Barn
TTITLE13=Andreas Oscar - Engel, Teufel, Lady und Sphinx
TTITLE14=Wild Bunch - Soldier
TTITLE15=Gitty - Whatever Maybe
TTITLE16=Barry P. Foley - Winds Of Corpus Christi
TTITLE17=Blue Steel - Black Or White
EXTD=Die Messe CD der Country Musci Messe in Berlin - das Original
EXTT0=
EXTT1=
EXTT2=
EXTT3=
EXTT4=
EXTT5=
EXTT6=
EXTT7=
EXTT8=
EXTT9=
EXTT10=
EXTT11=
EXTT12=
EXTT13=
EXTT14=
EXTT15=
EXTT16=
EXTT17=
PLAYORDER=
